<?xml version="1.0" encoding="UTF-8" standalone="no"?>
<!-- Created with Inkscape (http://www.inkscape.org/) -->

<svg
   version="1.1"
   id="svg1"
   width="64"
   height="64"
   viewBox="0 0 64 64"
   sodipodi:docname="po_translator.svg"
   inkscape:version="1.3 (0e150ed6c4, 2023-07-21)"
   xmlns:inkscape="http://www.inkscape.org/namespaces/inkscape"
   xmlns:sodipodi="http://sodipodi.sourceforge.net/DTD/sodipodi-0.dtd"
   xmlns="http://www.w3.org/2000/svg"
   xmlns:svg="http://www.w3.org/2000/svg">
  <defs
     id="defs1" />
  <sodipodi:namedview
     id="namedview1"
     pagecolor="#505050"
     bordercolor="#eeeeee"
     borderopacity="1"
     inkscape:showpageshadow="0"
     inkscape:pageopacity="0"
     inkscape:pagecheckerboard="0"
     inkscape:deskcolor="#505050"
     inkscape:zoom="5.12"
     inkscape:cx="2.8320313"
     inkscape:cy="27.636719"
     inkscape:window-width="1920"
     inkscape:window-height="1051"
     inkscape:window-x="1920"
     inkscape:window-y="0"
     inkscape:window-maximized="1"
     inkscape:current-layer="g1">
    <inkscape:page
       x="0"
       y="0"
       inkscape:label="1"
       id="page1"
       width="64"
       height="64"
       margin="0"
       bleed="0" />
  </sodipodi:namedview>
  <g
     id="g1"
     inkscape:groupmode="layer"
     inkscape:label="1">
    <g
       id="group-R5"
       transform="matrix(0.02242621,0,0,0.02220139,-9.3643889,-9.7340422)">
      <path
         id="path3"
         d="M 13783.2,12632 H 5418.54 c -853.18,0 -1544.82,691.6 -1544.82,1544.8 v 8364.7 c 0,853.1 691.64,1544.8 1544.82,1544.8 h 8364.66 c 853.2,0 1544.8,-691.7 1544.8,-1544.8 v -8364.7 c 0,-853.2 -691.6,-1544.8 -1544.8,-1544.8"
         style="fill:#d4aa00;fill-opacity:1;fill-rule:nonzero;stroke:none;stroke-width:0.9975;stroke-dasharray:none"
         transform="matrix(0.13333333,0,0,-0.13333333,0,3728)" />
      <path
         id="path4"
         d="m 9571.21,17552.7 c -752.09,664.6 -1282.67,1437.9 -1578.85,2300.9 h 3057.94 c -241.3,-823.1 -738.5,-1596.4 -1479.09,-2300.9 z m 3250.89,-1676.3 c -1039.2,283.6 -1962.3,712.2 -2745.4,1274.6 221,212.8 424.8,434 606.6,658.8 200.4,247.8 379.8,506.7 533.3,769.7 153.1,262.4 278.6,507.3 373.1,727.8 84.6,197.6 146.5,381 184.5,546.3 h 956.4 76.9 v 77 424.3 77 h -76.9 -2815.71 v 1002.6 77 h -76.97 -573.77 -76.98 v -77 -1002.6 h -2761.25 -76.97 v -77 -424.3 -77 h 76.97 847.2 c 143.23,-430.9 372.41,-896 681.76,-1383.5 306.85,-483.6 685.29,-933.9 1125.66,-1339.6 -733.14,-566.8 -1646.9,-1017.3 -2717.6,-1339.5 l -85.53,-25.8 38.1,-80.8 196.94,-417.6 28.3,-60 63.54,19.1 c 594.56,179.3 1149.91,398.7 1650.65,651.9 482.21,243.8 926.85,525.7 1322.53,838.4 402.27,-305.9 844.63,-580.4 1315.73,-816.5 489.4,-245.3 1023.6,-456 1587.6,-626.3 l 55.1,-16.6 31.5,48.1 298.8,455 58.1,88.6 -102.2,27.9"
         style="fill:#f6f6f6;fill-opacity:1;fill-rule:nonzero;stroke:none"
         transform="matrix(0.13333333,0,0,-0.13333333,0,3728)" />
      <path
         id="path5"
         d="m 22541.5,3873.7 h -8364.7 c -853.2,0 -1544.8,691.7 -1544.8,1544.8 v 8364.7 c 0,853.2 691.6,1544.8 1544.8,1544.8 h 8364.7 c 853.1,0 1544.8,-691.6 1544.8,-1544.8 V 5418.5 c 0,-853.1 -691.7,-1544.8 -1544.8,-1544.8"
         style="fill:#dadada;fill-opacity:1;fill-rule:nonzero;stroke:none"
         transform="matrix(0.13333333,0,0,-0.13333333,0,3728)" />
      <path
         id="path6"
         d="m 17287.4,8778.1 h 2143.4 L 18357,11727 Z m 2390.3,-679.8 H 17036.3 L 16443,6448.5 h -857.3 l 2407.5,6304.7 h 727.5 l 2411.9,-6304.7 h -853 l -601.9,1649.8"
         style="fill:#d4aa00;fill-opacity:1;fill-rule:nonzero;stroke:none"
         transform="matrix(0.13333333,0,0,-0.13333333,0,3728)" />
      <path
         id="path7"
         d="M 9668.52,12140.3 H 8595.08 V 8424 H 6651.26 v 3716.3 H 5577.83 l 2045.36,2567.3 2045.33,-2567.3"
         style="fill:#ffcc00;fill-opacity:1;fill-rule:nonzero;stroke:none"
         transform="matrix(0.13333333,0,0,-0.13333333,0,3728)" />
      <path
         id="path8"
         d="M 12311.4,5406.7 V 6480.1 H 8595.08 L 6651.26,8424 H 12311.4 V 9497.4 L 14878.7,7452.1 12311.4,5406.7"
         style="fill:#d4aa00;fill-opacity:1;fill-rule:nonzero;stroke:none"
         transform="matrix(0.13333333,0,0,-0.13333333,0,3728)" />
    </g>
  </g>
</svg>
